<svg xmlns="http://www.w3.org/2000/svg" viewBox="0 0 700 400">
  <rect width="700" height="400" fill="#F8F4F0"/>
  <rect x="0" y="320" width="700" height="80" fill="#3D2B1F"/>
  <!-- cintres et vêtements -->
  <line x1="100" y1="80" x2="600" y2="80" stroke="#8B6B5A" stroke-width="3"/>
  <!-- robe 1 -->
  <line x1="180" y1="80" x2="180" y2="95" stroke="#8B6B5A" stroke-width="2"/>
  <path d="M175 95 L155 280 L205 280 L185 95Z" fill="#C4956A" opacity="0.9"/>
  <path d="M170 108 L155 280 L165 280 L178 115Z" fill="#B8843A" opacity="0.4"/>
  <!-- robe 2 -->
  <line x1="300" y1="80" x2="300" y2="95" stroke="#8B6B5A" stroke-width="2"/>
  <path d="M293 95 Q280 140 265 280 L335 280 Q320 140 307 95Z" fill="#8B6B9A" opacity="0.9"/>
  <!-- chemise 3 -->
  <line x1="420" y1="80" x2="420" y2="95" stroke="#8B6B5A" stroke-width="2"/>
  <path d="M400 95 L390 150 L450 150 L440 95Z" fill="#5A8B8A" opacity="0.9"/>
  <rect x="390" y="150" width="60" height="130" fill="#5A8B8A" opacity="0.85"/>
  <!-- robe 4 -->
  <line x1="540" y1="80" x2="540" y2="95" stroke="#8B6B5A" stroke-width="2"/>
  <path d="M530 95 Q510 180 495 280 L585 280 Q570 180 550 95Z" fill="#C4755A" opacity="0.9"/>
  <!-- nom -->
  <text x="350" y="355" font-family="Georgia, serif" font-size="36" fill="white" text-anchor="middle" font-style="italic" letter-spacing="4">ederra</text>
  <text x="350" y="380" font-family="Georgia, serif" font-size="12" fill="rgba(255,255,255,0.5)" text-anchor="middle" letter-spacing="6">MODE ÉTHIQUE · GUÉTHARY</text>
</svg>